<svg xmlns="http://www.w3.org/2000/svg" width="1024" height="1024">
  <path d="M212.903 770.723c48.687-33.759 96.985-59.662 144.896-77.708s99.351-27.066 154.322-27.066c54.979 0 106.664 9.09 155.052 27.276 48.384 18.19 96.749 44.023 145.096 77.498 33.769-42.077 57.688-84.029 71.759-125.85 14.075-41.826 21.108-86.132 21.108-132.911 0-111.598-37.613-205.022-112.849-280.271C717.056 156.45 623.644 118.83 512.051 118.83c-111.586 0-205.014 37.62-280.286 112.861-75.264 75.249-112.896 168.673-112.896 280.271 0 46.764 7.187 91.038 21.562 132.817 14.375 41.784 38.532 83.763 72.471 125.943zm298.878-221.906c-45.433 0-83.602-15.532-114.5-46.592-30.906-31.069-46.359-69.26-46.359-114.572s15.523-83.476 46.569-114.49c31.053-31.015 69.3-46.522 114.733-46.522 45.438 0 83.605 15.581 114.502 46.743 30.906 31.154 46.359 69.388 46.359 114.7 0 45.32-15.523 83.44-46.569 114.36-31.05 30.915-69.297 46.373-114.735 46.373zm.605 435.559c-64.797 0-125.915-12.381-183.352-37.153-57.445-24.771-107.66-58.643-150.644-101.623-42.993-42.985-76.874-93.114-101.644-150.388-24.77-57.265-37.155-118.458-37.155-183.585 0-64.908 12.405-125.944 37.213-183.11 24.809-57.173 58.678-107.221 101.609-150.144 42.922-42.93 93.025-76.847 150.307-101.748s118.489-37.353 183.62-37.353c64.908 0 125.947 12.451 183.11 37.353 57.176 24.902 107.222 58.818 150.146 101.748 42.929 42.923 76.847 92.99 101.748 150.202s37.353 118.214 37.353 183.005c0 64.801-12.451 125.929-37.353 183.389-24.902 57.47-58.819 107.664-101.748 150.589-42.924 42.929-92.989 76.795-150.202 101.604s-118.216 37.213-183.007 37.213zm-.381-79.276c42.11 0 83.065-6.018 122.866-18.06 39.796-12.046 79.476-33.308 119.04-63.777-39.75-27.746-79.621-48.752-119.622-63.027-40.006-14.271-80.766-21.411-122.284-21.411s-82.235 7.14-122.147 21.411c-39.905 14.275-79.732 35.281-119.482 63.027 39.564 30.469 79.197 51.731 118.9 63.777 39.711 12.041 80.62 18.06 122.729 18.06zm0-429.443c25.795 0 46.899-8.15 63.311-24.457 16.417-16.306 24.623-37.415 24.623-63.325s-8.206-47.065-24.623-63.465c-16.412-16.407-37.516-24.611-63.311-24.611s-46.899 8.204-63.314 24.611c-16.415 16.399-24.623 37.554-24.623 63.465s8.207 47.019 24.623 63.325c16.415 16.307 37.518 24.457 63.314 24.457z"/>
</svg>