<svg xmlns="http://www.w3.org/2000/svg" width="1024" height="1024">
  <path d="M235.183 680.597c10.119-6.473 21.102-11.388 32.949-14.75 11.847-3.375 24.561-5.056 38.144-5.056h35.573V149.557h-35.573c-19.975 0-36.818 6.898-50.528 20.693s-20.565 30.681-20.565 50.656v459.691zm177.546-19.806h376.352V149.557H412.729v511.234zm-106.453 284.22c-39.303 0-72.793-13.837-100.469-41.515-27.677-27.674-41.515-61.163-41.515-100.467V220.906c0-39.374 13.838-72.925 41.515-100.651s61.166-41.589 100.469-41.589h480.766c20.233 0 37.444 7.097 51.639 21.291s21.291 31.406 21.291 51.637v551.885c0 6.955-1.779 13.257-5.333 18.91s-8.107 9.63-13.653 11.925c-13.005 5.385-23.206 14.153-30.605 26.304-7.394 12.16-11.093 26.189-11.093 42.078 0 15.893 3.682 29.875 11.042 41.941 7.36 12.079 17.532 20.736 30.515 25.984 6.144 2.675 10.871 7.339 14.178 13.995 3.298 6.656 4.949 14.724 4.949 24.205v1.186c0 9.677-3.439 17.929-10.317 24.755-6.869 6.835-15.287 10.249-25.259 10.249H306.275zm-.491-70.89h441.598c-5.999-10.112-10.667-21.278-13.995-33.502-3.328-12.233-4.992-24.751-4.992-37.555 0-13.564 1.685-26.274 5.047-38.135 3.371-11.861 8.371-22.946 15.006-33.25h-442.59c-19.527 0-36.189 6.899-49.984 20.693-13.796 13.798-20.693 30.677-20.693 50.645 0 19.814 6.897 36.617 20.693 50.411 13.795 13.798 30.432 20.693 49.909 20.693z"/>
</svg>