<svg xmlns="http://www.w3.org/2000/svg" width="993" height="1024">
  <path stroke="#000" stroke-width="31.03" d="M728.176 255.454c8.024.001 13.607 2.458 17.998 6.848 4.381 4.388 6.817 9.953 6.82 17.97 0 8.025-2.43 13.609-6.82 18L532.447 511.968l213.727 213.696c4.391 4.391 6.82 9.973 6.82 18.001-.003 8.028-2.43 13.61-6.82 18.001s-9.973 6.817-17.998 6.817c-8.028 0-13.61-2.427-18.001-6.817L496.479 547.939 282.781 761.666c-4.391 4.388-9.975 6.817-18 6.817-8.017 0-13.582-2.436-17.97-6.817-4.391-4.391-6.848-9.973-6.849-18.001s2.457-13.607 6.849-18.001l213.698-213.696-213.698-213.696c-4.391-4.391-6.849-9.972-6.849-18 .001-8.025 2.459-13.58 6.849-17.97s9.945-6.847 17.97-6.848c8.028 0 13.609 2.457 18 6.848l213.698 213.696 213.696-213.696c4.391-4.391 9.97-6.848 18.001-6.848z"/>
</svg>