<svg xmlns="http://www.w3.org/2000/svg" width="1024" height="1024">
  <path d="M194.297 902.345c-19.627 0-36.644-7.206-51.051-21.619-14.415-14.409-21.621-31.424-21.621-51.051V194.262c0-19.698 7.207-36.775 21.621-51.232 14.407-14.464 31.424-21.696 51.051-21.696H476.13c10.257 0 18.876 3.559 25.856 10.677 6.985 7.125 10.475 15.833 10.475 26.123 0 10.297-3.49 18.894-10.475 25.792-6.98 6.891-15.599 10.336-25.856 10.336H194.297v635.413H476.13c10.257 0 18.876 3.507 25.856 10.526 6.985 7.019 10.475 15.684 10.475 25.997s-3.49 18.914-10.475 25.801c-6.98 6.899-15.599 10.347-25.856 10.347H194.297zm569.086-354.036H418.809c-10.255 0-18.873-3.511-25.856-10.539-6.983-7.019-10.475-15.684-10.475-25.993s3.491-18.906 10.475-25.805c6.983-6.899 15.601-10.347 25.856-10.347H761.25l-82.057-82.059c-7.253-7.289-10.701-15.826-10.347-25.611.354-9.792 4.16-18.272 11.413-25.44 7.245-7.331 15.881-10.955 25.907-10.869 10.022.085 18.714 3.751 26.082 10.997l144.926 144.928c7.078 7.309 10.615 15.812 10.615 25.502 0 9.694-3.537 18.167-10.615 25.421L733.315 682.353c-7.113 7.249-15.565 10.735-25.357 10.466-9.796-.269-18.458-4.028-25.984-11.277-6.976-7.253-10.509-15.906-10.603-25.963-.09-10.061 3.584-18.735 11.021-26.027l80.99-81.246z"/>
</svg>