<svg xmlns="http://www.w3.org/2000/svg" width="1067" height="1024">
  <path fill="#33adc1" d="M1032.41 512.038c0 279.202-226.334 505.536-505.54 505.536a503.56 503.56 0 0 1-31.194-.947c-43.251-2.624-85.053-10.709-124.695-23.569-15.081-4.864-29.861-10.458-44.278-16.67-179.649-77.521-305.37-256.252-305.37-464.35C21.333 232.833 247.666 6.5 526.869 6.5c279.206 0 505.54 226.333 505.54 505.538z"/>
  <path fill="#eae0d3" d="M495.693 1016.644c-59.721-3.635-116.624-17.643-168.971-40.239C522.492 712.478 183.583 461.09 183.583 461.09l170.871-42.173c0-.008 365.7 223.072 141.239 597.728z"/>
  <path fill="#d6c8b0" d="M371 993.101c-15.081-4.868-29.86-10.462-44.278-16.67 195.77-263.932-143.139-515.319-143.139-515.319l49.392-12.194c11.972 8.956 28.727 20.612 45.828 36.604 89.142 83.26 218.455 260.45 92.196 507.58z"/>
  <path fill="#eae0d3" d="M476.42 287.849c0 109.152-88.477 197.63-197.636 197.63-109.152 0-197.63-88.478-197.63-197.63 0-16.3 1.959-32.128 5.693-47.279A196.141 196.141 0 0 1 103 197.426l-81.667-81.667 133.836 17.888-68.654-85.115L243.462 93.35 226.353 6.499s136.536 75.519 201.41 151.478c4.915 5.631 9.493 11.555 13.76 17.726 21.999 31.858 34.897 70.482 34.897 112.145z"/>
  <path fill="#2f373b" d="M385.01 247.488c0 26.729-21.668 48.404-48.397 48.404-26.737 0-48.405-21.676-48.405-48.404 0-26.736 21.668-48.404 48.405-48.404 26.729 0 48.397 21.668 48.397 48.404z"/>
  <path fill="#ff648d" d="M838.699 279.488c-19.87 10.383-40.815 8.03-57.63 2.453-19.665-6.495-33.655-17.349-33.655-17.349s-70.775-69.479-16.324-99.725c16.448-9.118 29.76-9.079 40.32-4.544h.026c24.452 10.483 34.27 44.879 34.27 44.879s19.712-51.104 63.309-35.631c43.575 15.451 12.753 87.406-30.315 109.915z"/>
  <path fill="#ea2f69" d="M781.069 281.941c-19.665-6.495-33.655-17.349-33.655-17.349s-70.775-69.479-16.324-99.725c16.448-9.118 29.76-9.079 40.32-4.544-24.098-1.358-24.862 87.452 9.66 121.617z"/>
  <path fill="#fff" d="M371.212 232.036c0 8.354-6.773 15.127-15.127 15.127s-15.127-6.773-15.127-15.127c0-8.346 6.773-15.119 15.127-15.119s15.127 6.773 15.127 15.119z"/>
  <path fill="#ff648d" d="M765.111 302.833c0 73.729-200.678 297.585-69.589 390.355 32.768 23.194 68.941 30.754 104.772 29.056 35.823 1.707 71.991-5.862 104.768-29.056 131.081-92.77-69.594-316.625-69.594-390.355z"/>
  <path fill="#ea2f69" d="M794.867 722.406c-34.065.742-68.237-7.198-99.345-29.218-131.089-92.77 69.594-316.633 69.594-390.355h21.508c0 73.722-77.982 297.585-27.038 390.355 11.085 20.177 23.172 28.54 35.281 29.218zM794.876 722.411c1.796-.013 3.593-.085 5.393-.162a27.814 27.814 0 0 1-5.393.162zM805.675 722.411a27.732 27.732 0 0 1-5.385-.162c1.801.077 3.588.149 5.385.162z"/>
  <path fill="#ffd62c" d="m932.181 289.846-500.143 82.677s-17.457-26.474-23.813-61.572c-5.654-31.295-2.476-69.456 29.859-101.785l494.097 80.68z"/>
  <path fill="#ffb92e" d="M932.207 289.833 432.064 372.51s-17.458-26.474-23.814-61.572l523.957-21.105z"/>
  <path fill="#d6c8b0" d="M278.784 485.444c-109.152 0-197.63-88.477-197.63-197.629 0-16.3 1.959-32.128 5.693-47.279A196.141 196.141 0 0 1 103 197.392l-81.667-81.667 133.836 17.888-68.654-85.115 160.001 90.067s-98.822 36.317-98.822 151.27 131.09 195.607 131.09 195.607z"/>
</svg>