<svg xmlns="http://www.w3.org/2000/svg" width="1126" height="1024">
  <path d="M929.28 979.881c-37.228 0-69.371-11.064-96.42-33.193-27.044-22.134-44.078-48.645-51.113-79.539H515.84c-56.992 0-104.185-18.708-141.578-56.125-37.393-37.427-56.09-84.659-56.09-141.696 0-56.832 18.697-103.962 56.09-141.389 37.393-37.42 84.586-56.129 141.578-56.129h98.56c34.314 0 62.428-10.966 84.342-32.896 21.914-21.922 32.87-50.048 32.87-84.378s-10.957-62.434-32.87-84.314c-21.914-21.888-50.028-32.832-84.342-32.832H344.963c-8.09 30.89-25.442 57.404-52.058 79.539-26.624 22.127-58.551 33.19-95.782 33.19-42.778 0-78.967-14.801-108.57-44.403-29.594-29.602-44.39-65.792-44.39-108.57 0-42.786 14.797-78.976 44.39-108.57 29.602-29.585 65.792-44.378 108.57-44.378 37.231 0 69.158 11.063 95.782 33.19 26.615 22.135 43.968 48.649 52.058 79.539H614.4c56.934 0 104.115 18.71 141.542 56.128 37.422 37.427 56.131 84.608 56.131 141.542s-18.708 104.115-56.131 141.542c-37.427 37.418-84.608 56.126-141.542 56.126h-98.56c-34.37 0-62.496 10.947-84.375 32.835-21.888 21.878-32.832 49.951-32.832 84.224 0 34.473 10.944 62.648 32.832 84.531 21.879 21.888 50.006 32.829 84.375 32.829h265.907c7.885-30.889 25.139-57.4 51.753-79.539 26.624-22.124 58.552-33.188 95.78-33.188 42.778 0 78.971 14.802 108.57 44.401 29.594 29.604 44.39 65.792 44.39 108.57 0 42.788-14.797 78.976-44.39 108.57-29.599 29.588-65.792 44.38-108.57 44.38zM197.123 266.28c19.626 0 36.054-6.614 49.28-19.84s19.84-29.654 19.84-49.28-6.614-36.054-19.84-49.28-29.654-19.84-49.28-19.84-36.054 6.614-49.28 19.84-19.84 29.654-19.84 49.28 6.614 36.054 19.84 49.28 29.654 19.84 49.28 19.84z"/>
</svg>